<svg width="17" height="16" viewBox="0 0 17 16" fill="none" xmlns="http://www.w3.org/2000/svg">
<path d="M0.15625 12.175L4.78125 7.35L1.23125 2.225C1.05625 2.45 0.93125 2.75 0.90625 3.1L0.00625 11.275C-0.01875 11.625 0.03125 11.925 0.15625 12.175ZM15.6813 1.375L8.98125 7.6L14.2563 14.725C14.5563 14.475 14.7563 14.1 14.8063 13.65L16.0063 2.5C16.0563 2.05 15.9063 1.625 15.6813 1.375Z" fill="#B0BDC6"/>
<path d="M6.43125 9.8501L4.78125 7.3501L0.15625 12.1751C0.25625 12.4001 0.43125 12.5501 0.63125 12.6001L13.3313 15.0001C13.6813 15.0751 14.0063 14.9501 14.2563 14.7251L8.98125 7.6001L6.43125 9.8501Z" fill="#CAD5DD"/>
<path d="M14.8314 0.999777L1.78145 1.87478C1.58145 1.89978 1.38145 2.02478 1.23145 2.22478L4.80645 7.34978L6.45645 9.84978L9.00645 7.59978L15.6814 1.37478C15.4564 1.12478 15.1564 0.974777 14.8314 0.999777Z" fill="#DFE9EF"/>
<path d="M5.20079 11.1309L3.63555 10.901L7.08809 4.26193L8.95285 4.5358L10.341 11.8858L8.78538 11.6574L8.50061 9.96719L5.96918 9.5954L5.20079 11.1309ZM6.50236 8.51887L8.29949 8.78281L7.81332 5.97731L7.76501 5.97022L6.50236 8.51887Z" fill="#1E293B"/>
</svg>
