<svg width="16" height="16" viewBox="0 0 16 16" fill="none" xmlns="http://www.w3.org/2000/svg">
<path d="M12.785 7.27449C12.6082 7.27449 12.4386 7.34473 12.3136 7.46975C12.1886 7.59478 12.1183 7.76435 12.1183 7.94116V9.53583L11.1317 8.54916C10.7842 8.2021 10.3131 8.00717 9.82199 8.00717C9.33087 8.00717 8.85983 8.2021 8.51233 8.54916L8.04699 9.01383L6.38966 7.35649C6.04256 7.00997 5.57213 6.81534 5.08166 6.81534C4.59119 6.81534 4.12076 7.00997 3.77366 7.35649L2.78499 8.34516V4.60783C2.78499 4.43101 2.85523 4.26144 2.98026 4.13642C3.10528 4.0114 3.27485 3.94116 3.45166 3.94116H7.45166C7.62847 3.94116 7.79804 3.87092 7.92306 3.7459C8.04809 3.62087 8.11833 3.4513 8.11833 3.27449C8.11833 3.09768 8.04809 2.92811 7.92306 2.80309C7.79804 2.67806 7.62847 2.60783 7.45166 2.60783H3.45166C2.92139 2.60835 2.41299 2.81924 2.03803 3.1942C1.66307 3.56915 1.45219 4.07755 1.45166 4.60783V12.6078C1.45219 13.1381 1.66307 13.6465 2.03803 14.0215C2.41299 14.3964 2.92139 14.6073 3.45166 14.6078H11.4517C11.9819 14.6073 12.4903 14.3964 12.8653 14.0215C13.2402 13.6465 13.4511 13.1381 13.4517 12.6078V7.94116C13.4517 7.76435 13.3814 7.59478 13.2564 7.46975C13.1314 7.34473 12.9618 7.27449 12.785 7.27449ZM3.45166 13.2745C3.27485 13.2745 3.10528 13.2043 2.98026 13.0792C2.85523 12.9542 2.78499 12.7846 2.78499 12.6078V10.2305L4.71633 8.29916C4.81524 8.20616 4.94589 8.15438 5.08166 8.15438C5.21743 8.15438 5.34808 8.20616 5.44699 8.29916L7.55899 10.4105C7.56499 10.4172 7.56699 10.4252 7.57233 10.4305L10.417 13.2745H3.45166ZM12.1183 12.6078C12.115 12.7364 12.0735 12.861 11.999 12.9658L8.98966 9.95649L9.45499 9.49116C9.55243 9.39427 9.68425 9.33988 9.82166 9.33988C9.95907 9.33988 10.0909 9.39427 10.1883 9.49116L12.1183 11.4212V12.6078Z" fill="#0F172A"/>
<path fill-rule="evenodd" clip-rule="evenodd" d="M9.25521 2.26339C9.25923 2.21083 9.28079 2.16027 9.31743 2.11746C9.35407 2.07466 9.40432 2.04132 9.46246 2.02124C9.5206 2.00117 9.58431 1.99516 9.64632 2.00391C9.70834 2.01265 9.76618 2.0358 9.81327 2.07071L12.8865 4.35366C13.1101 4.5197 12.9828 4.82954 12.6842 4.84506L11.7215 4.89446L12.3676 6.18737C12.4306 6.31342 12.4314 6.45521 12.37 6.58178C12.3085 6.70835 12.1898 6.80941 12.0396 6.86291L11.7716 6.95861C11.6968 6.98528 11.6165 6.99934 11.5353 6.99998C11.454 7.00062 11.3734 6.98782 11.2981 6.96233C11.2228 6.93684 11.1542 6.89915 11.0962 6.85143C11.0383 6.8037 10.9922 6.74687 10.9606 6.6842L10.2731 5.32327L9.55571 5.84235C9.33026 6.00529 8.98189 5.86045 9.00073 5.61165L9.25521 2.26339Z" fill="#4ADE80"/>
</svg>
