<svg width="16" height="16" viewBox="0 0 16 16" fill="none" xmlns="http://www.w3.org/2000/svg">
<path d="M7.33333 4.66667H13V6H7.33333V7.33333H8.66667C9.02029 7.33333 9.35943 7.47381 9.60948 7.72386C9.85952 7.97391 10 8.31304 10 8.66667V10C10 10.3536 9.85952 10.6928 9.60948 10.9428C9.35943 11.1929 9.02029 11.3333 8.66667 11.3333H2.39052V10H8.66667V8.66667H7.33333C6.97971 8.66667 6.64057 8.52619 6.39052 8.27614C6.14048 8.02609 6 7.68696 6 7.33333V6C6 5.64638 6.14048 5.30724 6.39052 5.05719C6.64057 4.80714 6.97971 4.66667 7.33333 4.66667ZM3.33333 2H12.6667C13.0203 2 13.3594 2.14048 13.6095 2.39052C13.8595 2.64057 14 2.97971 14 3.33333V12.6667C14 13.0203 13.8595 13.3594 13.6095 13.6095C13.3594 13.8595 13.0203 14 12.6667 14H3.33333C2.97971 14 2.64057 13.8595 2.39052 13.6095C2.14048 13.3594 2 13.0203 2 12.6667V3.33333C2 2.97971 2.14048 2.64057 2.39052 2.39052C2.64057 2.14048 2.97971 2 3.33333 2ZM3.33333 3.33333V12.6667H12.6667V3.33333H3.33333Z" fill="#1E1B4B"/>
</svg>
