<svg width="24" height="24" viewBox="0 0 24 24" fill="none" xmlns="http://www.w3.org/2000/svg">
<path fill-rule="evenodd" clip-rule="evenodd" d="M9.75788 4.53602L8.48788 4.31602C8.39579 4.29997 8.30104 4.31006 8.21439 4.34515C8.12774 4.38023 8.05267 4.43891 7.99768 4.51451C7.9427 4.59011 7.91001 4.67961 7.90333 4.77285C7.89665 4.8661 7.91624 4.95935 7.95988 5.04202L10.1369 9.18902L5.85688 8.48402L5.03688 7.56802C4.66334 7.05026 4.10853 6.69217 3.48288 6.56502L3.47688 6.56402L2.51788 6.38402C2.43153 6.36774 2.34241 6.37452 2.25951 6.40365C2.17661 6.43279 2.10285 6.48326 2.04566 6.54997C1.98848 6.61669 1.94988 6.6973 1.93377 6.78368C1.91766 6.87006 1.92459 6.95917 1.95388 7.04202L3.29788 10.838C3.33988 10.9563 3.42484 11.0545 3.53588 11.113L9.11288 14.071C9.15979 14.0962 9.21043 14.1138 9.26288 14.123L21.0769 16.153C21.142 16.1642 21.2087 16.1623 21.273 16.1475C21.3374 16.1328 21.3982 16.1054 21.452 16.067C21.5057 16.0286 21.5513 15.9799 21.5862 15.9238C21.621 15.8677 21.6443 15.8052 21.6549 15.74L21.9699 13.773C22.2079 12.44 21.2749 11.142 19.9049 10.885L19.8879 10.881L15.8079 10.266L11.1419 5.28702L11.1259 5.27102L10.9799 5.13802C10.6319 4.84102 10.2389 4.64802 9.78788 4.54102C9.77788 4.53835 9.76788 4.53668 9.75788 4.53602Z" fill="#3B82F6"/>
<path d="M17.9999 18C18.2651 18 18.5195 18.1054 18.707 18.2929C18.8945 18.4804 18.9999 18.7348 18.9999 19C18.9999 19.2652 18.8945 19.5196 18.707 19.7071C18.5195 19.8947 18.2651 20 17.9999 20H5.99988C5.73467 20 5.48031 19.8947 5.29278 19.7071C5.10524 19.5196 4.99988 19.2652 4.99988 19C4.99988 18.7348 5.10524 18.4804 5.29278 18.2929C5.48031 18.1054 5.73467 18 5.99988 18H17.9999Z" fill="#020617"/>
</svg>
